<svg width="440" height="130" viewBox="0 0 440 130" fill="none" xmlns="http://www.w3.org/2000/svg">
<g filter="url(#filter0_d_570_82)">
<path d="M331.292 106.74C328.883 106.74 326.503 106.358 324.153 105.594C321.744 104.83 319.834 103.831 318.424 102.597L324.77 92.7259C325.769 93.6073 326.885 94.3124 328.119 94.8412C329.412 95.37 330.822 95.6344 332.35 95.6344C334.113 95.6344 335.64 95.1937 336.933 94.3124C338.285 93.431 339.607 91.9326 340.899 89.8173L344.689 83.8238L345.923 82.4136L370.955 41.5171H384.528L352.974 92.1089C350.624 95.8107 348.362 98.7193 346.188 100.835C344.072 103.009 341.81 104.536 339.401 105.418C337.051 106.299 334.348 106.74 331.292 106.74ZM341.781 90.7868L330.411 41.5171H344.16L352.798 81.1796L341.781 90.7868Z" fill="url(#paint0_linear_570_82)"/>
<path fill-rule="evenodd" clip-rule="evenodd" d="M324.769 92.7258C325.718 93.5631 326.773 94.2413 327.934 94.7605C327.996 94.7878 328.057 94.8147 328.119 94.8411C329.411 95.37 330.822 95.6344 332.349 95.6344C332.862 95.6344 333.355 95.5971 333.828 95.5226C334.981 95.3408 336.016 94.9374 336.933 94.3123C337.968 93.6371 338.986 92.5999 339.987 91.2006C340.292 90.7733 340.596 90.3121 340.899 89.8172L341.381 89.0553L330.41 41.517H344.16L351.192 73.8052L370.954 41.517H384.528L352.974 92.1088C352.667 92.5928 352.361 93.0631 352.057 93.52C350.034 96.5576 348.077 98.9958 346.187 100.835C344.072 103.009 341.81 104.536 339.4 105.418C338.893 105.608 338.369 105.778 337.828 105.927C337.336 106.063 336.83 106.182 336.311 106.284C334.759 106.588 333.086 106.74 331.292 106.74C329.701 106.74 328.124 106.573 326.559 106.241C325.754 106.069 324.951 105.854 324.152 105.594C323.161 105.28 322.255 104.926 321.433 104.532C320.257 103.969 319.254 103.324 318.423 102.597L324.769 92.7258ZM321.458 113.986C318.283 112.976 315.194 111.484 312.619 109.23L306.899 104.225L322.905 79.3265L330.601 86.1168C330.871 86.3551 331.165 86.5473 331.509 86.7038C331.581 86.7299 331.679 86.7581 331.81 86.7803L319.331 32.7031H351.261L355.133 50.4825L366.015 32.7031H400.412L360.434 96.8032L360.415 96.8331C357.87 100.841 355.219 104.326 352.419 107.068C349.576 109.969 346.269 112.283 342.463 113.682C338.944 114.997 335.17 115.554 331.292 115.554C327.944 115.554 324.656 115.022 321.458 113.986Z" fill="#2A2929"/>
<path d="M294.671 88.9358L304.542 39.8424C305.6 34.6715 307.833 30.5584 311.241 27.5029C314.708 24.3887 319.35 22.8315 325.167 22.8315C327.341 22.8315 329.368 23.0666 331.249 23.5367C333.129 23.948 334.745 24.5943 336.096 25.4757L330.72 35.3473C329.133 34.2309 327.312 33.6726 325.255 33.6726C323.14 33.6726 321.495 34.2602 320.319 35.4354C319.144 36.5519 318.292 38.344 317.763 40.8119L316.794 45.2189L316.089 50.7716L308.509 88.9358H294.671ZM294.495 53.1514L296.61 42.5747H329.486L327.37 53.1514H294.495Z" fill="url(#paint1_linear_570_82)"/>
<path fill-rule="evenodd" clip-rule="evenodd" d="M283.909 97.7497L291.104 61.9652H283.744L289.385 33.7607H297.062C298.721 28.8191 301.437 24.4563 305.354 20.9431C310.812 16.0418 317.738 14.0176 325.167 14.0176C327.932 14.0176 330.642 14.3118 333.261 14.9547C335.943 15.5546 338.549 16.5522 340.911 18.093L347.731 22.5409L339.435 37.7741L334.596 61.9652H322.852L315.744 97.7497H283.909ZM315.616 53.1513H327.371L329.486 42.5746H317.376L317.764 40.8118C318.292 38.344 319.144 36.5518 320.32 35.4354C321.232 34.523 322.428 33.9647 323.907 33.7607C324.333 33.702 324.782 33.6726 325.255 33.6726C325.727 33.6726 326.187 33.702 326.634 33.7607C327.419 33.8639 328.166 34.0577 328.874 34.342C329.082 34.4251 329.285 34.516 329.486 34.6146C329.912 34.8239 330.323 35.0681 330.72 35.3472L336.096 25.4757C335.578 25.1377 335.021 24.8344 334.425 24.5655C333.467 24.1332 332.408 23.7902 331.249 23.5366C330.043 23.2352 328.777 23.0304 327.451 22.9223C326.709 22.8617 325.947 22.8315 325.167 22.8315C319.35 22.8315 314.708 24.3886 311.241 27.5029C309.298 29.245 307.737 31.3309 306.558 33.7607C305.669 35.5925 304.997 37.6197 304.543 39.8423L303.993 42.5746H296.61L294.495 53.1513H301.867L294.671 88.9357H308.509L315.616 53.1513Z" fill="#2A2929"/>
<path d="M266.661 88.9359L276.092 41.5171H289.753L280.322 88.9359H266.661Z" fill="#E8E8E8"/>
<path fill-rule="evenodd" clip-rule="evenodd" d="M255.921 97.7497L268.858 32.7031H300.492L287.556 97.7497H255.921ZM266.66 88.9358H280.322L289.753 41.517H276.091L266.66 88.9358Z" fill="#2A2929"/>
<path d="M247.66 89.6408C244.252 89.6408 241.344 88.965 238.935 87.6136C236.525 86.2033 234.792 84.2055 233.734 81.6201C232.735 78.9759 232.589 75.8617 233.294 72.2774L241.491 31.0283H255.24L247.043 72.1892C246.691 74.1871 246.896 75.7736 247.66 76.9488C248.424 78.1239 249.834 78.7115 251.891 78.7115C252.831 78.7115 253.771 78.5646 254.711 78.2708C255.71 77.977 256.621 77.5657 257.444 77.0369L259.471 86.8203C257.767 87.878 255.887 88.6125 253.83 89.0238C251.773 89.4351 249.717 89.6408 247.66 89.6408ZM229.768 53.1512L231.883 42.5745H264.759L262.644 53.1512H229.768Z" fill="#E8E8E8"/>
<path fill-rule="evenodd" clip-rule="evenodd" d="M234.552 95.2609L234.482 95.22C230.401 92.8314 227.366 89.3327 225.576 84.9573L225.531 84.8467L225.489 84.7349C223.763 80.1653 223.714 75.3084 224.645 70.576L224.647 70.5677L226.356 61.9651H219.017L224.657 33.7606H231.961L234.256 22.2144H265.982L263.683 33.7606H275.51L269.869 61.9651H258.066L257.108 66.7742L263.471 62.6842L269.351 91.0616L264.119 94.3089C261.478 95.9481 258.601 97.0579 255.558 97.6665C252.944 98.1894 250.308 98.4546 247.66 98.4546C243.091 98.4546 238.623 97.5448 234.622 95.3005L234.552 95.2609ZM251.814 69.8953C251.815 69.8952 251.821 69.8954 251.835 69.8966C251.821 69.8961 251.814 69.8955 251.814 69.8953ZM250.834 53.1512H262.644L264.759 42.5745H252.941L255.24 31.0283H241.49L239.196 42.5745H231.883L229.768 53.1512H237.094L233.293 72.2773C232.588 75.8616 232.735 78.9759 233.734 81.6201C234.792 84.2055 236.525 86.2033 238.934 87.6135C241.343 88.965 244.252 89.6407 247.66 89.6407C249.717 89.6407 251.773 89.4351 253.83 89.0237C255.886 88.6124 257.767 87.8779 259.471 86.8203L257.443 77.0368C256.621 77.5657 255.71 77.977 254.711 78.2708C253.771 78.5646 252.831 78.7115 251.891 78.7115C251.256 78.7115 250.683 78.6555 250.172 78.5436C249.025 78.2929 248.188 77.7613 247.66 76.9487C246.896 75.7735 246.691 74.187 247.043 72.1892L250.834 53.1512Z" fill="#2A2929"/>
<path d="M189.109 88.9359L198.54 41.5171H211.584L208.852 55.0024L207.618 51.1243C209.733 47.3049 212.495 44.6314 215.903 43.1036C219.311 41.5759 223.395 40.812 228.154 40.812L225.687 53.504C225.099 53.4453 224.541 53.4159 224.012 53.4159C223.542 53.3571 223.042 53.3278 222.514 53.3278C218.459 53.3278 215.139 54.3267 212.554 56.3245C210.027 58.3223 208.323 61.5541 207.442 66.0198L202.859 88.9359H189.109Z" fill="#E8E8E8"/>
<path fill-rule="evenodd" clip-rule="evenodd" d="M178.37 97.7498L191.306 32.7032H219.999C222.623 32.2194 225.353 31.998 228.155 31.998H238.847L232.805 63.0737L224.81 62.2741C224.481 62.2412 224.217 62.2297 224.012 62.2297H223.463L222.919 62.1617C222.85 62.1531 222.719 62.1416 222.514 62.1416C219.986 62.1416 218.701 62.7305 217.99 63.2632C217.647 63.5495 216.71 64.5785 216.089 67.7264L216.087 67.7373L210.084 97.7498H178.37ZM218.092 53.7866C219.453 53.4807 220.927 53.3277 222.514 53.3277C223.043 53.3277 223.542 53.3571 224.012 53.4158C224.541 53.4158 225.099 53.4452 225.687 53.504L228.155 40.8119C225.398 40.8119 222.868 41.0682 220.565 41.5807C220.012 41.7037 219.472 41.8414 218.946 41.9939C218.296 42.182 217.666 42.3926 217.056 42.6257C216.664 42.7757 216.279 42.935 215.903 43.1036C214.325 43.811 212.886 44.7642 211.585 45.9631C211.195 46.3226 210.817 46.7041 210.452 47.1077L211.585 41.5171H198.54L189.109 88.9359H202.859L207.442 66.0197C208.323 61.554 210.027 58.3222 212.554 56.3244C212.755 56.1693 212.96 56.0202 213.17 55.8771C213.636 55.5585 214.125 55.2697 214.636 55.0108C215.042 54.805 215.462 54.618 215.896 54.4499C216.592 54.1802 217.324 53.9591 218.092 53.7866Z" fill="#2A2929"/>
<path d="M156.207 89.641C151.389 89.641 147.187 88.7596 143.603 86.9969C140.019 85.2341 137.228 82.7662 135.23 79.5932C133.291 76.4202 132.321 72.689 132.321 68.3995C132.321 63.1112 133.555 58.4104 136.023 54.2973C138.491 50.1254 141.87 46.8348 146.159 44.4257C150.507 42.0166 155.443 40.812 160.966 40.812C165.844 40.812 170.045 41.6934 173.57 43.4562C177.155 45.219 179.916 47.6869 181.855 50.8599C183.853 53.9741 184.852 57.7053 184.852 62.0535C184.852 67.2831 183.618 71.9838 181.15 76.1558C178.682 80.3277 175.304 83.6182 171.014 86.0273C166.725 88.4365 161.789 89.641 156.207 89.641ZM157.088 78.3592C159.791 78.3592 162.171 77.7129 164.228 76.4202C166.343 75.0687 167.988 73.2178 169.163 70.8674C170.339 68.517 170.926 65.7847 170.926 62.6705C170.926 59.4975 169.986 56.9414 168.106 55.0024C166.225 53.0633 163.581 52.0938 160.173 52.0938C157.47 52.0938 155.061 52.7695 152.946 54.121C150.889 55.4137 149.244 57.2352 148.01 59.5856C146.835 61.936 146.247 64.6683 146.247 67.7825C146.247 71.0143 147.187 73.5997 149.068 75.5388C150.948 77.4191 153.622 78.3592 157.088 78.3592Z" fill="#E8E8E8"/>
<path fill-rule="evenodd" clip-rule="evenodd" d="M127.74 84.2394L127.709 84.1891C124.801 79.4308 123.507 74.0572 123.507 68.3995C123.507 61.6918 125.088 55.401 128.451 49.7863C131.72 44.2697 136.23 39.8931 141.843 36.7409L141.865 36.7284L141.887 36.716C147.684 33.5047 154.118 31.998 160.966 31.998C166.883 31.998 172.487 33.0663 177.486 35.5597C182.414 37.9887 186.458 41.525 189.326 46.1825C192.348 50.9309 193.666 56.3516 193.666 62.0534C193.666 68.7329 192.071 75.0056 188.736 80.6432C185.466 86.1708 180.951 90.5553 175.33 93.7121C169.554 96.9565 163.094 98.4549 156.207 98.4549C150.314 98.4549 144.732 97.3743 139.713 94.9059C134.765 92.4721 130.696 88.934 127.771 84.2893L127.74 84.2394ZM181.855 50.8598C179.916 47.6868 177.155 45.2189 173.57 43.4561C170.045 41.6933 165.843 40.8119 160.966 40.8119C155.443 40.8119 150.507 42.0165 146.159 44.4256C141.87 46.8348 138.491 50.1253 136.023 54.2972C133.555 58.4104 132.321 63.1111 132.321 68.3995C132.321 72.6889 133.291 76.4201 135.23 79.5931C137.228 82.7661 140.019 85.234 143.603 86.9968C147.187 88.7596 151.389 89.641 156.207 89.641C161.789 89.641 166.725 88.4364 171.014 86.0273C175.304 83.6181 178.682 80.3276 181.15 76.1557C183.618 71.9838 184.852 67.283 184.852 62.0534C184.852 57.7053 183.853 53.974 181.855 50.8598ZM152.946 54.1209C150.889 55.4136 149.244 57.2352 148.01 59.5856C146.835 61.9359 146.247 64.6682 146.247 67.7825C146.247 71.0143 147.187 73.5997 149.068 75.5387C150.948 77.419 153.621 78.3592 157.088 78.3592C159.791 78.3592 162.171 77.7128 164.228 76.4201C166.343 75.0686 167.988 73.2177 169.163 70.8673C170.339 68.517 170.926 65.7847 170.926 62.6704C170.926 59.4974 169.986 56.9414 168.106 55.0023C166.225 53.0633 163.581 52.0937 160.173 52.0937C157.47 52.0937 155.061 52.7695 152.946 54.1209ZM159.511 68.9739C160.208 68.5223 160.789 67.908 161.28 66.9257C161.74 66.006 162.112 64.668 162.112 62.6704C162.112 61.9539 162.007 61.5736 161.949 61.4162C161.901 61.2854 161.855 61.2177 161.781 61.1408C161.777 61.1389 161.772 61.136 161.764 61.1321C161.749 61.1245 161.721 61.1118 161.678 61.096C161.508 61.0337 161.053 60.9076 160.173 60.9076C159.017 60.9076 158.28 61.1722 157.691 61.5484L157.664 61.5658L157.636 61.5831C157.032 61.9631 156.425 62.5476 155.857 63.6017C155.414 64.5188 155.061 65.8382 155.061 67.7825C155.061 68.5468 155.172 68.9584 155.236 69.1333C155.263 69.2087 155.289 69.2616 155.315 69.3034C155.337 69.3132 155.367 69.3253 155.407 69.3393C155.621 69.4146 156.136 69.5453 157.088 69.5453C158.304 69.5453 159.016 69.2794 159.511 68.9739ZM155.264 69.2769C155.264 69.2769 155.268 69.2788 155.273 69.283C155.266 69.2791 155.264 69.277 155.264 69.2769Z" fill="#2A2929"/>
<path d="M100.906 89.641C97.0863 89.641 93.737 88.9065 90.8578 87.4376C88.0374 85.9686 85.9221 83.7063 84.5118 80.6509C83.1016 77.5366 82.6021 73.541 83.0135 68.6639C83.366 63.023 84.5118 58.1166 86.4509 53.9447C88.4487 49.7728 91.1516 46.541 94.5597 44.2494C97.9677 41.9578 101.993 40.812 106.635 40.812C110.337 40.812 113.745 41.664 116.859 43.368C119.973 45.0133 122.47 47.4224 124.351 50.5954C126.231 53.7097 127.171 57.529 127.171 62.0535C127.171 65.9904 126.495 69.6628 125.144 73.0709C123.792 76.4202 121.912 79.3288 119.503 81.7967C117.153 84.2645 114.391 86.2036 111.218 87.6138C108.045 88.9653 104.608 89.641 100.906 89.641ZM67.1484 106.035L80.0167 41.5171H93.0613L91.1223 50.948L88.1255 65.0502L86.2746 79.1525L80.8981 106.035H67.1484ZM99.3192 78.2711C102.081 78.2711 104.49 77.6247 106.547 76.332C108.603 74.9806 110.219 73.159 111.394 70.8674C112.628 68.517 113.245 65.7847 113.245 62.6705C113.245 59.4387 112.305 56.8827 110.425 55.0024C108.544 53.1221 105.871 52.1819 102.404 52.1819C99.7599 52.1819 97.3801 52.8577 95.2648 54.2091C93.1494 55.5018 91.5042 57.3234 90.329 59.6738C89.1538 61.9654 88.5662 64.6683 88.5662 67.7825C88.5662 71.0143 89.5064 73.5704 91.3867 75.4506C93.267 77.3309 95.9111 78.2711 99.3192 78.2711Z" fill="#E8E8E8"/>
<path fill-rule="evenodd" clip-rule="evenodd" d="M85.5827 82.6115C86.92 84.6937 88.6784 86.3024 90.8577 87.4375C91.6658 87.8498 92.511 88.2043 93.3932 88.5008C95.6541 89.2609 98.1582 89.641 100.906 89.641C104.607 89.641 108.045 88.9652 111.218 87.6138C114.391 86.2035 117.153 84.2645 119.503 81.7966C121.912 79.3287 123.792 76.4201 125.144 73.0708C126.495 69.6628 127.171 65.9903 127.171 62.0534C127.171 57.529 126.231 53.7096 124.351 50.5954C122.47 47.4224 119.973 45.0132 116.859 43.368C113.744 41.664 110.336 40.8119 106.635 40.8119C105.06 40.8119 103.556 40.9438 102.123 41.2076C100.603 41.4874 99.1633 41.9155 97.8033 42.4921C96.6662 42.9741 95.5849 43.5599 94.5595 44.2494C94.0439 44.5961 93.5445 44.9643 93.0612 45.354C93.0298 45.3793 92.9984 45.4047 92.9672 45.4302C92.6734 45.6699 92.3856 45.9175 92.1038 46.1732L93.0612 41.5171H80.0166L67.1483 106.035H80.898L85.5827 82.6115ZM97.7222 52.9861C96.8668 53.3012 96.0476 53.7089 95.2646 54.2091C94.1565 54.8863 93.1774 55.7086 92.3273 56.676C92.3102 56.6954 92.2932 56.7149 92.2763 56.7344C91.5252 57.5995 90.8761 58.5793 90.3289 59.6737C89.5011 61.2878 88.9649 63.106 88.7202 65.1282C88.7183 65.1439 88.7164 65.1596 88.7145 65.1754C88.6156 66.0098 88.5661 66.8788 88.5661 67.7825C88.5661 68.2045 88.5821 68.615 88.6142 69.0139C88.6175 69.0551 88.621 69.0962 88.6246 69.1371C88.8565 71.7367 89.7771 73.8412 91.3865 75.4506C91.6532 75.7173 91.9353 75.9651 92.2327 76.1939C93.131 76.8851 94.1694 77.4038 95.348 77.75C96.5306 78.0974 97.8543 78.271 99.3191 78.271C102.081 78.271 104.49 77.6247 106.546 76.332C108.603 74.9805 110.219 73.159 111.394 70.8673C112.628 68.517 113.245 65.7847 113.245 62.6704C113.245 59.4387 112.305 56.8826 110.425 55.0023C108.544 53.122 105.871 52.1819 102.404 52.1819C101.512 52.1819 100.651 52.2587 99.8193 52.4124C99.5604 52.4602 99.3045 52.5155 99.0514 52.5782C99.0122 52.588 98.973 52.5979 98.934 52.608C98.5223 52.7142 98.1184 52.8402 97.7222 52.9861ZM99.7024 32.7032H72.7871L56.4028 114.849H88.1237L91.655 97.192C94.6152 98.0594 97.7207 98.4549 100.906 98.4549C105.706 98.4549 110.328 97.5727 114.672 95.7228L114.735 95.6959L114.797 95.668C118.988 93.8055 122.694 91.2153 125.848 87.9144C129.079 84.5944 131.563 80.7155 133.317 76.3689L133.327 76.3444L133.337 76.3199C135.128 71.8034 135.985 67.02 135.985 62.0534C135.985 56.3247 134.792 50.8514 131.915 46.0714C129.259 41.602 125.617 38.0402 121.033 35.6052C116.581 33.1812 111.728 31.998 106.635 31.998C104.262 31.998 101.944 32.2273 99.7024 32.7032ZM103.571 66.8078L103.59 66.7704C104.055 65.8858 104.431 64.6046 104.431 62.6704C104.431 61.9036 104.32 61.5128 104.268 61.3722C104.241 61.3 104.223 61.2698 104.21 61.2532C104.19 61.2426 104.151 61.2248 104.085 61.2018C103.871 61.1264 103.356 60.9958 102.404 60.9958C101.347 60.9958 100.631 61.2398 100.01 61.6365L99.9358 61.6839L99.8607 61.7298C99.2407 62.1087 98.695 62.6499 98.2123 63.6154L98.1921 63.6556L98.1716 63.6956C97.7549 64.5083 97.38 65.7775 97.38 67.7825C97.38 68.5493 97.4916 68.9401 97.5433 69.0807C97.5757 69.1689 97.5952 69.1945 97.6094 69.209C97.6269 69.2188 97.6642 69.237 97.7326 69.2613C97.9282 69.3309 98.4123 69.4571 99.3191 69.4571C100.59 69.4571 101.317 69.1906 101.787 68.912C102.475 68.442 103.057 67.8097 103.551 66.8454L103.571 66.8078ZM97.5969 69.2006C97.5975 69.2005 97.6015 69.2029 97.6076 69.2079C97.5994 69.2032 97.5963 69.2006 97.5969 69.2006ZM104.228 61.2641C104.228 61.2642 104.225 61.2623 104.219 61.2581C104.226 61.262 104.229 61.2641 104.228 61.2641ZM104.199 61.2411C104.197 61.2391 104.194 61.237 104.192 61.2347C104.193 61.236 104.195 61.2372 104.196 61.2385C104.197 61.2393 104.198 61.2402 104.199 61.2411Z" fill="#2A2929"/>
<path d="M36.7671 89.9933C33.4178 89.9933 30.1566 89.6701 26.9836 89.0238C23.8694 88.4362 21.0196 87.6136 18.4341 86.5559C15.9075 85.4982 13.7628 84.3524 12 83.1185L17.8172 72.1011C19.7562 73.4526 21.8128 74.6277 23.9869 75.6267C26.2198 76.5668 28.5408 77.3013 30.9499 77.8301C33.359 78.3002 35.7682 78.5352 38.1773 78.5352C40.8215 78.5352 43.0837 78.2414 44.964 77.6539C46.9031 77.0663 48.372 76.2436 49.3709 75.186C50.4286 74.1283 50.9574 72.8356 50.9574 71.3078C50.9574 69.8976 50.3992 68.7518 49.2828 67.8704C48.1664 66.989 46.6974 66.2545 44.8759 65.6669C43.1131 65.0206 41.1446 64.4036 38.9705 63.816C36.7964 63.2284 34.593 62.5527 32.3601 61.7888C30.186 60.9662 28.1882 59.9673 26.3667 58.7921C24.6039 57.5582 23.1643 56.001 22.0478 54.1207C20.9314 52.2404 20.3732 49.8901 20.3732 47.0696C20.3732 42.8389 21.519 39.1665 23.8106 36.0522C26.161 32.938 29.4515 30.5289 33.6822 28.8248C37.9129 27.0621 42.878 26.1807 48.5777 26.1807C52.7496 26.1807 56.6865 26.6507 60.3883 27.5909C64.0902 28.4723 67.2632 29.765 69.9073 31.469L64.5309 42.3982C62.1805 40.8117 59.5657 39.6366 56.6865 38.8727C53.8073 38.0501 50.8399 37.6387 47.7844 37.6387C45.0228 37.6387 42.643 37.9619 40.6452 38.6083C38.7061 39.2546 37.2078 40.1654 36.1501 41.3406C35.1512 42.457 34.6517 43.7497 34.6517 45.2187C34.6517 46.6877 35.1806 47.8922 36.2382 48.8324C37.3547 49.7138 38.8236 50.4777 40.6452 51.124C42.4667 51.7116 44.4645 52.2992 46.6386 52.8868C48.8127 53.4744 50.9868 54.1501 53.1609 54.914C55.335 55.6779 57.3328 56.6474 59.1544 57.8226C60.9759 58.9978 62.4449 60.4961 63.5613 62.3177C64.6778 64.0804 65.236 66.3133 65.236 69.0162C65.236 73.2469 64.0608 76.9487 61.7104 80.1217C59.36 83.236 56.0401 85.6745 51.7507 87.4373C47.52 89.1413 42.5255 89.9933 36.7671 89.9933Z" fill="#E8E8E8"/>
<path fill-rule="evenodd" clip-rule="evenodd" d="M25.5885 76.2605C27.3243 76.9036 29.1115 77.427 30.9501 77.8305C33.3592 78.3006 35.7683 78.5357 38.1775 78.5357C40.8216 78.5357 43.0839 78.2419 44.9642 77.6543C46.9032 77.0667 48.3722 76.244 49.3711 75.1864C50.4288 74.1287 50.9576 72.836 50.9576 71.3083C50.9576 69.898 50.3994 68.7522 49.283 67.8708C48.1666 66.9895 46.6976 66.255 44.876 65.6674C43.1133 65.021 41.1448 64.404 38.9707 63.8164C36.7966 63.2288 34.5932 62.5531 32.3603 61.7892C30.1862 60.9666 28.1884 59.9677 26.3668 58.7925C24.6041 57.5586 23.1645 56.0015 22.048 54.1212C20.9316 52.2409 20.3734 49.8905 20.3734 47.07C20.3734 42.8394 21.5192 39.1669 23.8108 36.0527C26.1612 32.9384 29.4517 30.5293 33.6824 28.8253C37.9131 27.0625 42.8782 26.1811 48.5779 26.1811C52.7498 26.1811 56.6867 26.6512 60.3885 27.5913C60.8721 27.7065 61.3468 27.8286 61.8123 27.9578C62.7702 28.2236 63.6899 28.5191 64.5713 28.8444C66.5408 29.571 68.3195 30.4461 69.9075 31.4694L64.531 42.3987C62.6631 41.1378 60.6281 40.1367 58.4261 39.3954C57.8574 39.204 57.2776 39.0299 56.6867 38.8731C53.8075 38.0505 50.8401 37.6392 47.7846 37.6392C45.0229 37.6392 42.6432 37.9623 40.6454 38.6087C38.7063 39.255 37.2079 40.1658 36.1503 41.341C35.1514 42.4574 34.6519 43.7501 34.6519 45.2191C34.6519 46.6881 35.1808 47.8927 36.2384 48.8328C37.3548 49.7142 38.8238 50.4781 40.6454 51.1244C42.4669 51.712 44.4647 52.2996 46.6388 52.8872C48.8129 53.4748 50.987 54.1505 53.1611 54.9144C55.3352 55.6783 57.333 56.6478 59.1546 57.823C60.9761 58.9982 62.4451 60.4966 63.5615 62.3181C64.6779 64.0809 65.2362 66.3137 65.2362 69.0166C65.2362 73.2473 64.061 76.9492 61.7106 80.1222C59.3602 83.2364 56.0403 85.6749 51.7509 87.4377C47.5202 89.1417 42.5257 89.9937 36.7673 89.9937C33.418 89.9937 30.1568 89.6706 26.9838 89.0242C24.4323 88.5428 22.0583 87.9036 19.8617 87.1066C19.4885 86.9712 19.1204 86.8312 18.7574 86.6867C18.6493 86.6436 18.5416 86.6002 18.4343 86.5563C15.9077 85.4986 13.763 84.3528 12.0002 83.1189L17.8174 72.1015C19.7564 73.453 21.813 74.6282 23.9871 75.6271C24.5159 75.8497 25.0497 76.0609 25.5885 76.2605ZM14.9058 59.3288C14.7567 59.0958 14.6112 58.8599 14.4694 58.621C12.3421 55.0382 11.5595 51.0243 11.5595 47.07C11.5595 41.1465 13.2004 35.6007 16.7118 30.8288L16.7435 30.7858L16.7757 30.7431C20.2325 26.1628 24.9007 22.8687 30.3411 20.6691C35.8605 18.3784 42.0082 17.3672 48.5779 17.3672C53.3917 17.3672 58.0408 17.9075 62.4942 19.0324C66.9447 20.0983 71.0619 21.7277 74.682 24.0607L81.2823 28.3143L68.507 54.2838C69.4482 55.3199 70.2959 56.4464 71.044 57.6597C73.2547 61.1797 74.0501 65.1507 74.0501 69.0166C74.0501 74.9932 72.3503 80.5662 68.7931 85.3684L68.7696 85.4002L68.7458 85.4317C65.2783 90.026 60.5742 93.3408 55.1012 95.59L55.0726 95.6018L55.0439 95.6134C49.5313 97.8337 43.3693 98.8076 36.7673 98.8076C32.8692 98.8076 29.0391 98.4332 25.2877 97.6736C21.6895 96.9909 18.2811 96.0165 15.0971 94.714L15.064 94.7004L15.031 94.6866C12.0723 93.4481 9.34234 92.0171 6.94575 90.3395L0.575195 85.8801L14.6781 59.1701L14.9058 59.3288Z" fill="#2A2929"/>
<rect x="273.817" y="1.89826" width="26.4417" height="26.4417" rx="13.2209" fill="#E8E8E8"/>
<rect x="273.817" y="1.89826" width="26.4417" height="26.4417" rx="13.2209" stroke="#2A2929" stroke-width="2.20348"/>
<path fill-rule="evenodd" clip-rule="evenodd" d="M285.936 6.76144L284.664 5.48943C282.329 6.06308 280.319 7.46382 278.963 9.36329L279.46 11.2167L282.499 12.414L285.936 10.1225V6.76144ZM277.122 15.1191C277.122 14.6244 277.159 14.138 277.229 13.6626L278.674 13.2754L281.646 14.4463L282.425 19.1474L280.524 21.0482H279.09C277.854 19.3944 277.122 17.3423 277.122 15.1191ZM282.37 23.8696C283.761 24.6132 285.35 25.0348 287.038 25.0348C288.854 25.0348 290.556 24.5465 292.02 23.6942V22.6327L290.015 20.6278H284.061L282.37 22.3185V23.8696ZM293.706 21.2028H294.869C296.175 19.5231 296.954 17.4121 296.954 15.1191C296.954 14.7871 296.937 14.4591 296.906 14.1355L295.41 13.2722L292.43 14.4463L291.651 19.1474L293.706 21.2028ZM295.283 9.60913C293.928 7.5849 291.847 6.08761 289.412 5.48946L288.14 6.76173V10.1225L291.577 12.414L294.278 11.3499L295.283 9.60913ZM274.919 15.1191C274.919 8.42591 280.345 3 287.038 3C293.731 3 299.157 8.42591 299.157 15.1191C299.157 21.8122 293.731 27.2382 287.038 27.2382C280.345 27.2382 274.919 21.8122 274.919 15.1191ZM283.834 14.1721L284.539 18.4243H289.537L290.242 14.1721L287.038 12.0363L283.834 14.1721Z" fill="#2A2929"/>
<path d="M387.98 84.0824L386.344 87.4913L347.152 109.488C346.17 108.845 345.893 107.54 346.532 106.563L390.564 41.3338L399.415 33.8486L390.721 54.136L393.368 58.0477L390.703 69.1761L383.119 74.0628L382.251 77.2763L387.98 84.0824Z" fill="#2A2929"/>
<path fill-rule="evenodd" clip-rule="evenodd" d="M414.771 75.9054C414.574 76.4555 414.289 76.9954 413.91 77.5026C413.719 77.7508 413.514 77.9905 413.292 78.2082L402.904 88.0472L398.761 99.038C398.656 99.3798 398.484 99.7266 398.248 100.036C397.179 101.461 395.165 101.736 393.736 100.661C392.627 99.8313 392.208 98.4082 392.593 97.1536L397.098 85.1146C397.212 84.8447 397.344 84.5734 397.538 84.3261L397.831 83.9982L404.184 77.8452L395.712 74.3989L388.585 79.4737C387.493 80.1639 386.043 80.126 384.945 79.3053C383.527 78.2198 383.244 76.2043 384.301 74.7902C384.485 74.552 384.699 74.3433 384.921 74.1656L393.537 68.0521C394.397 67.4902 395.483 67.3631 396.457 67.7277L404.071 70.768L406.65 61.5693L402.852 61.9707C402.491 61.9858 402.109 61.9206 401.759 61.7657L393.574 57.1496C392.553 56.4716 392.141 55.1596 392.636 54.0204C393.201 52.7302 394.693 52.1454 395.976 52.7062L396.096 52.7684L403.222 56.7661L412.392 56.0536C413.679 56.0305 414.983 56.4105 416.093 57.238C418.02 58.703 418.798 61.122 418.256 63.3277L414.771 75.9054ZM414.497 54.7114C412.633 52.8058 412.661 49.7491 414.559 47.8931C416.457 46.0388 419.514 46.0772 421.377 47.9828C423.241 49.8884 423.212 52.9475 421.315 54.8027C419.418 56.6595 416.361 56.6178 414.497 54.7114ZM420.68 62.1117C420.888 61.3907 421.647 60.9486 422.379 61.1688L424.988 61.8879C425.72 62.108 426.156 62.8596 425.948 63.6007L422.129 77.4211C421.922 78.1421 421.174 78.5751 420.432 78.3649L417.822 77.6265C417.091 77.4256 416.664 76.6649 416.863 75.9338L420.68 62.1117Z" fill="#2A2929"/>
</g>
<defs>
<filter id="filter0_d_570_82" x="0.575195" y="0.796387" width="439.425" height="128.757" filterUnits="userSpaceOnUse" color-interpolation-filters="sRGB">
<feFlood flood-opacity="0" result="BackgroundImageFix"/>
<feColorMatrix in="SourceAlpha" type="matrix" values="0 0 0 0 0 0 0 0 0 0 0 0 0 0 0 0 0 0 127 0" result="hardAlpha"/>
<feOffset dx="10" dy="10"/>
<feGaussianBlur stdDeviation="2"/>
<feComposite in2="hardAlpha" operator="out"/>
<feColorMatrix type="matrix" values="0 0 0 0 0 0 0 0 0 0 0 0 0 0 0 0 0 0 0.25 0"/>
<feBlend mode="normal" in2="BackgroundImageFix" result="effect1_dropShadow_570_82"/>
<feBlend mode="normal" in="SourceGraphic" in2="effect1_dropShadow_570_82" result="shape"/>
</filter>
<linearGradient id="paint0_linear_570_82" x1="303.564" y1="110.971" x2="371.872" y2="3.00032" gradientUnits="userSpaceOnUse">
<stop stop-color="#DD8100"/>
<stop offset="1" stop-color="#FFF5E8"/>
</linearGradient>
<linearGradient id="paint1_linear_570_82" x1="303.563" y1="110.971" x2="371.871" y2="3.00024" gradientUnits="userSpaceOnUse">
<stop stop-color="#DD8100"/>
<stop offset="1" stop-color="#FFF5E8"/>
</linearGradient>
</defs>
</svg>
